<?xml version="1.0" encoding="UTF-8" standalone="no"?><!DOCTYPE svg PUBLIC "-//W3C//DTD SVG 1.1//EN" "http://www.w3.org/Graphics/SVG/1.1/DTD/svg11.dtd"><svg width="100%" height="100%" viewBox="0 0 114 114" version="1.1" xmlns="http://www.w3.org/2000/svg" xmlns:xlink="http://www.w3.org/1999/xlink" xml:space="preserve" xmlns:affinity="https://www.affinity.studio/" style="fill-rule:evenodd;clip-rule:evenodd;stroke-linejoin:round;stroke-miterlimit:2;"><g><rect x="1.5" y="1.5" width="110.39" height="110.39" style="fill:#fff;"/><path d="M110.39,3l0,107.39l-107.39,0l0,-107.39l107.39,0Zm3,-3l-113.39,0l0,113.39l113.39,0l0,-113.39Z" style="fill:#878787;fill-rule:nonzero;"/></g><g><g><g><path d="M83.25,79.68c-4.2,0 -7.61,-4.39 -7.61,-9.78c0,-5.39 3.41,-9.78 7.61,-9.78c4.2,0 7.61,4.39 7.61,9.78c0,5.39 -3.41,9.78 -7.61,9.78Z" style="fill:#fff;fill-rule:nonzero;stroke:#333;stroke-width:4px;"/></g><g><path d="M83.25,97.9c-4.8,0 -12.62,-1.32 -15.61,-1.86l0,-8.53c0,-3.39 6.41,-7.17 15.61,-7.17c9.2,0 15.61,3.78 15.61,7.17l0,8.53c-2.99,0.54 -10.81,1.86 -15.61,1.86Z" style="fill:#fff;fill-rule:nonzero;stroke:#333;stroke-width:4px;"/></g></g><g><g><path d="M29.602,79.68c-4.2,0 -7.61,-4.39 -7.61,-9.78c0,-5.39 3.41,-9.78 7.61,-9.78c4.2,0 7.61,4.39 7.61,9.78c0,5.39 -3.41,9.78 -7.61,9.78Z" style="fill:#fff;fill-rule:nonzero;stroke:#333;stroke-width:4px;"/></g><g><path d="M29.602,97.9c-4.8,0 -12.62,-1.32 -15.61,-1.86l0,-8.53c0,-3.39 6.41,-7.17 15.61,-7.17c9.2,0 15.61,3.78 15.61,7.17l0,8.53c-2.99,0.54 -10.81,1.86 -15.61,1.86Z" style="fill:#fff;fill-rule:nonzero;stroke:#333;stroke-width:4px;"/></g></g><g><g><path d="M56.695,86.813c-4.2,0 -7.61,-4.39 -7.61,-9.78c0,-5.39 3.41,-9.78 7.61,-9.78c4.2,0 7.61,4.39 7.61,9.78c0,5.39 -3.41,9.78 -7.61,9.78Z" style="fill:#fff;fill-rule:nonzero;stroke:#333;stroke-width:4px;"/></g><g><path d="M56.695,105.033c-4.8,0 -12.62,-1.32 -15.61,-1.86l0,-8.53c0,-3.39 6.41,-7.17 15.61,-7.17c9.2,0 15.61,3.78 15.61,7.17l0,8.53c-2.99,0.54 -10.81,1.86 -15.61,1.86Z" style="fill:#fff;fill-rule:nonzero;stroke:#333;stroke-width:4px;"/></g></g></g><path d="M56.71,6.58c-0.11,0 -0.44,0.04 -0.75,0.06c-0.61,0.05 -1.67,0.21 -2.16,0.32l-0.31,0.07l0,4.55l-0.6,0.89c-0.68,1 -1.17,1.61 -1.59,1.98c-0.75,0.64 -1.41,0.97 -2.45,1.19c-0.29,0.06 -0.55,0.08 -1.25,0.08c-0.93,0 -1.45,-0.06 -2.32,-0.25l-0.44,-0.1l-3.15,-3.15l-0.6,0.48c-1.76,1.4 -3.26,2.96 -4.6,4.73l-0.25,0.33l1.52,1.53l1.53,1.53l0.17,0.45c0.43,1.11 0.59,1.89 0.59,2.81c0,0.65 -0.04,0.92 -0.2,1.46c-0.42,1.35 -1.69,2.61 -3.74,3.7l-0.45,0.24l-2.19,0c-1.88,0 -2.2,0 -2.22,0.06c-0.04,0.11 -0.24,1.44 -0.3,2.02c-0.03,0.35 -0.06,1.14 -0.05,2.13c0,1.6 0.04,2.37 0.23,4.1c0.05,0.43 0.09,0.79 0.09,0.81c0,0.02 0.97,0.03 2.16,0.03l2.16,0l0.36,0.15c1.79,0.73 2.84,1.61 3.44,2.89c0.61,1.28 0.6,3.14 0,5.23l-0.09,0.3l-3.06,3.06l0.12,0.17c0.19,0.29 0.94,1.21 1.5,1.83c1.08,1.21 2.22,2.31 3.31,3.18l0.56,0.45l3.18,-3.18l0.34,-0.04c0.61,-0.07 2.19,-0.1 2.77,-0.05c1.86,0.17 3.18,0.79 4.25,1.99c0.32,0.37 0.83,1.12 1.07,1.6l0.18,0.35l0,4.51l0.44,0.07c0.62,0.1 1.74,0.23 2.48,0.3c0.81,0.07 3.29,0.07 4.02,0c0.59,-0.06 2.01,-0.25 2.14,-0.29c0.07,-0.02 0.07,-0.17 0.07,-2.31l0,-2.28l0.2,-0.41c0.61,-1.25 1.57,-2.25 2.72,-2.83c0.5,-0.25 1.25,-0.49 1.91,-0.61c0.49,-0.09 0.7,-0.1 1.65,-0.1c0.66,0 1.3,0.02 1.61,0.06l0.52,0.06l1.7,1.72l1.71,1.72l0.16,-0.12c0.37,-0.27 1.53,-1.23 2.01,-1.65c1.3,-1.14 2.46,-2.39 3.24,-3.49l0.15,-0.21l-3.4,-3.4l-0.15,-0.73c-0.25,-1.26 -0.3,-1.65 -0.3,-2.51c0,-0.61 0.02,-0.88 0.08,-1.16c0.21,-0.94 0.58,-1.66 1.25,-2.36c0.61,-0.64 1.26,-1.1 2.29,-1.61l0.57,-0.28l4.94,0l0.02,-0.1c0.03,-0.15 0.15,-1.07 0.21,-1.75c0.22,-2.21 0.18,-4.62 -0.11,-6.57c-0.05,-0.32 -0.09,-0.62 -0.11,-0.66c-0.02,-0.07 -0.18,-0.07 -2.53,-0.07l-2.51,0l-0.55,-0.27c-2.32,-1.16 -3.37,-2.62 -3.51,-4.88c-0.04,-0.67 0.09,-2.08 0.32,-3.26l0.04,-0.24l3.48,-3.48l-0.27,-0.4c-0.88,-1.3 -2.18,-2.64 -3.74,-3.85c-0.78,-0.61 -1.6,-1.19 -1.64,-1.17c-0.02,0 -0.79,0.75 -1.7,1.64c-1.2,1.18 -1.7,1.65 -1.82,1.69c-0.09,0.03 -0.43,0.12 -0.76,0.18c-3.21,0.67 -5.61,-0.43 -7.41,-3.38l-0.26,-0.43l0,-2.37c0,-1.95 0,-2.37 -0.06,-2.37c-0.03,0 -0.4,-0.04 -0.83,-0.09c-1.56,-0.17 -2.3,-0.22 -3.56,-0.23l-1.48,0l0.01,-0.01Zm3.11,18.04c1.04,0.12 2.07,0.44 3.09,0.94c1.08,0.53 1.89,1.12 2.73,1.98c1.25,1.29 2.13,2.92 2.53,4.7c0.28,1.24 0.29,2.91 0.02,4.14c-0.78,3.51 -3.28,6.28 -6.65,7.36c-1.03,0.33 -1.83,0.45 -2.97,0.45c-1.6,0 -2.87,-0.29 -4.29,-0.98c-1.43,-0.69 -2.65,-1.69 -3.55,-2.9c-0.49,-0.65 -0.68,-0.97 -1.03,-1.68c-0.5,-1.03 -0.83,-2.18 -0.95,-3.34c-0.07,-0.66 -0.03,-1.85 0.09,-2.52c0.53,-3.12 2.41,-5.71 5.21,-7.15c1.8,-0.93 3.68,-1.26 5.76,-1l0.01,-0Z" style="fill:#fff;fill-rule:nonzero;stroke:#333;stroke-width:6px;stroke-linejoin:miter;stroke-miterlimit:10;"/></svg>