<?xml version="1.0" encoding="UTF-8"?>
<svg id="Ebene_1" xmlns="http://www.w3.org/2000/svg" version="1.1" viewBox="0 0 62.53 85.2">
  <!-- Generator: Adobe Illustrator 30.8.2, SVG Export Plug-In . SVG Version: 2.1.4 Build 7)  -->
  <defs>
    <style>
      .st0 {
        fill: #fff;
        stroke: #1c070a;
        stroke-linecap: round;
        stroke-linejoin: round;
        stroke-width: 3px;
      }

      .st1 {
        fill: #4ca2da;
      }
    </style>
  </defs>
  <g>
    <polygon class="st0" points="42.54 19.99 61.03 19.99 42.54 1.5 42.54 19.99"/>
    <polygon class="st0" points="61.03 83.7 1.5 83.7 1.5 1.5 42.54 1.5 42.54 19.99 61.03 19.99 61.03 83.7"/>
  </g>
  <g>
    <rect class="st1" x="8.32" y="9.24" width="28" height="3.41"/>
    <rect class="st1" x="8.32" y="16.58" width="28" height="3.41"/>
    <path class="st1" d="M52.41,37.35h-18.15v-6.47c0-1.66-1.34-3-3-3s-3,1.34-3,3v6.47H10.12c-1.66,0-3,1.34-3,3s1.34,3,3,3h6.72c2.73,9.02,5.33,15.05,9.63,19.63-2.31,1.38-5.07,2.62-8.44,3.89-1.55.58-2.34,2.31-1.76,3.86.45,1.2,1.59,1.95,2.81,1.95.35,0,.71-.06,1.05-.19,4.54-1.7,8.16-3.45,11.14-5.46,2.97,2.01,6.59,3.75,11.14,5.46.35.13.7.19,1.05.19,1.21,0,2.36-.74,2.81-1.95.58-1.55-.2-3.28-1.76-3.86-3.38-1.27-6.13-2.51-8.44-3.89,4.3-4.57,6.9-10.6,9.63-19.63h6.72c1.66,0,3-1.34,3-3s-1.34-3-3-3ZM31.26,59.31c-3.62-3.62-5.8-8.43-8.16-15.96h16.31c-2.35,7.53-4.54,12.34-8.16,15.96Z"/>
  </g>
</svg>